<svg xmlns="http://www.w3.org/2000/svg" viewBox="0 0 846 354"><path d="M93,326C92,325 89,325 85,325C78,325 77,325 72,321C67,318 66,318 63,319C57,319 53,318 53,315C53,311 44,303 40,303C31,303 35,295 44,294L50,294L50,272C50,256 49,251 48,250C47,249 47,245 47,239C47,234 47,230 46,228C44,225 44,215 45,212C46,211 47,209 47,208C47,206 48,204 49,202C50,201 51,199 50,198C50,197 51,195 52,193C53,190 54,188 54,187C54,187 55,184 56,182C58,179 58,179 57,178C55,177 53,177 53,178C51,181 40,176 38,171C35,166 37,163 43,159C46,157 48,155 48,155C48,154 50,154 56,156C60,156 61,154 59,151C57,149 57,147 57,139L57,129L60,126C62,124 63,123 64,123C64,123 66,122 67,121C71,118 79,114 81,114C82,114 83,113 84,112C84,112 85,111 86,111C88,111 91,107 95,100C97,96 99,92 100,91C101,90 102,89 102,89C102,88 103,86 105,85C106,84 107,82 107,80C107,79 108,78 108,77C109,77 110,76 111,75C111,72 120,59 123,55C125,54 127,51 128,49C129,47 130,44 132,42C133,41 136,37 138,34C141,31 144,28 146,27C148,26 150,25 150,25C150,24 169,24 170,25C170,26 172,27 175,28C180,30 187,38 190,43C194,51 191,64 184,72C184,73 183,74 183,75C183,75 180,79 177,83C174,87 170,93 169,95C168,98 166,100 166,101C165,101 165,102 165,103C165,104 163,107 160,109C158,112 156,115 156,115C156,116 154,118 152,121C151,124 149,127 149,127C149,128 151,132 155,138C158,144 160,149 160,150C160,151 160,152 161,152C162,153 162,154 162,156C162,157 163,159 163,161C167,165 165,173 159,178C157,180 155,180 143,180C130,180 130,180 128,183C127,184 127,185 127,186C128,186 127,187 127,188C126,190 126,191 127,191C127,192 128,194 128,196C128,198 128,198 130,199C134,199 135,196 133,195C132,194 131,193 131,192C132,191 131,190 131,189C129,187 129,186 131,186C133,186 136,189 136,192C136,193 137,194 138,195C139,196 139,204 138,207C135,214 118,213 114,206C113,203 111,203 111,206C111,207 110,208 110,210C109,211 108,212 108,213C108,213 107,216 106,219C104,222 103,227 102,229C102,232 101,235 100,235C98,236 99,224 102,218C104,215 106,212 106,211C107,210 107,208 106,207C106,206 107,204 108,202C109,200 110,198 110,195C110,192 111,190 111,189C113,188 114,188 114,195C116,204 121,210 126,208C127,207 128,207 129,208C131,210 135,205 134,203C133,201 132,201 128,201L124,202L123,195C123,191 122,188 120,186C118,183 114,182 114,185C113,186 113,187 112,187C111,187 110,184 111,183C112,182 113,180 113,179C114,178 115,177 116,177C117,176 117,175 117,174C116,172 120,168 122,167C125,167 126,166 126,163C126,161 127,159 128,159C128,158 129,157 129,156C129,154 130,153 130,153C131,152 132,151 132,150C132,148 133,147 134,146C134,145 135,143 135,142C135,139 138,134 140,134C143,134 154,159 152,162C151,163 151,164 151,166C151,168 144,171 141,170C140,169 139,169 139,170C138,170 135,171 133,171C127,172 124,174 127,176C129,178 158,177 158,175C158,174 159,172 160,171C162,168 162,168 161,165C160,163 159,160 159,157C159,154 159,152 158,151C157,151 156,150 155,148C155,146 154,145 153,144C153,143 152,142 152,141C152,140 152,139 151,139C148,137 144,126 146,125C147,124 155,112 155,111C155,110 156,108 158,106C160,104 161,101 161,100C161,98 161,98 160,99C159,100 158,101 157,101C155,101 156,97 158,97C160,96 159,94 157,91C155,90 154,87 156,87C157,87 158,88 158,90C159,91 160,92 161,93C161,94 162,95 162,95C162,96 163,96 164,96C166,96 165,92 162,88C159,84 158,83 160,83C161,83 163,84 164,86C166,89 166,89 168,88C170,86 169,83 164,80C162,78 159,75 159,74C158,73 157,72 157,72C155,72 149,67 149,66C149,64 151,65 153,67C154,68 155,69 156,69C157,69 165,76 169,80C171,83 172,82 172,80C172,77 159,63 157,63C156,63 156,62 156,62C156,60 157,60 159,62C160,63 163,66 166,68C169,70 172,74 173,75C175,79 177,79 177,75C177,72 178,71 179,71C185,69 192,49 188,46C187,46 186,44 184,42C181,37 178,33 174,31C172,30 170,29 169,28C167,26 153,27 150,29C149,30 147,32 145,33C143,34 142,35 142,36C142,37 141,38 139,40C136,43 137,44 142,45C144,45 147,46 148,47C150,47 151,48 152,48C153,48 154,48 154,49C154,50 155,50 156,50C157,50 158,51 159,52C160,53 161,54 162,54C162,54 164,55 165,56C166,57 169,60 172,62C177,67 178,70 176,70C175,70 174,69 174,68C173,66 164,57 162,57C161,57 156,54 154,52C153,52 152,51 151,51C150,51 149,50 149,50C148,48 139,47 139,48C139,49 138,50 136,52C132,56 132,57 135,57C137,57 138,58 138,59C139,61 138,61 135,60C130,58 127,62 133,64C136,66 137,68 134,68C133,68 132,68 132,67C132,66 128,65 127,66C125,67 127,69 133,72C139,76 140,77 137,78C136,78 135,77 133,75C130,72 119,70 120,73C121,75 127,78 130,78C132,78 133,79 133,80C134,80 135,81 136,81C139,81 146,86 151,91C155,95 155,95 151,98C148,100 146,103 144,107C144,109 141,110 141,108C141,107 141,106 142,106C143,106 149,94 148,93C148,92 147,91 146,91C145,90 144,89 144,88C143,88 142,87 141,87C140,87 139,87 139,86C139,85 138,85 137,85C136,85 135,85 135,86C135,87 134,87 134,87C133,87 132,89 132,94C132,100 132,100 130,102C126,105 124,106 121,104C119,103 115,104 115,108C114,110 111,111 110,110C108,109 109,106 112,105C114,103 115,101 112,99C111,97 111,97 112,96C113,95 113,95 114,97C116,100 118,98 117,94C117,91 117,90 118,90C120,90 121,88 120,87C119,87 117,88 115,90C112,93 112,93 111,92C111,91 111,89 113,88C114,86 115,85 115,84C115,83 121,83 123,84C124,85 129,84 129,83C129,81 127,80 125,81C122,82 116,82 115,80C113,79 110,82 106,88C105,90 104,91 104,91C103,91 103,92 103,93C103,93 102,95 101,96C99,98 98,101 100,101C101,101 102,100 102,99C102,98 103,97 103,97C106,97 106,98 105,101C103,104 103,111 105,114C107,116 115,120 118,120C120,120 122,119 125,117C127,115 129,114 130,114C131,114 135,118 135,119C135,121 134,120 132,118C131,117 131,117 129,118C128,119 127,120 126,120C126,120 124,121 124,122C121,124 113,125 111,123C110,122 109,121 108,121C105,121 101,115 101,111C100,108 100,105 99,104C97,103 97,103 95,107C94,109 93,112 93,114C93,116 92,119 91,120C90,122 90,125 90,126C89,130 87,131 87,128C87,127 86,126 86,126C85,126 84,127 84,128C84,129 85,130 86,131C86,131 87,132 87,134C87,137 80,150 79,149C78,149 78,143 79,143C80,143 84,135 84,133C84,133 84,132 83,132C82,132 82,131 81,129L80,127L75,131C70,135 70,135 70,141C70,146 70,146 72,145C75,145 76,145 74,149C72,152 73,154 76,152C78,149 78,150 78,153C77,157 74,160 72,159C70,159 69,162 72,163C73,163 73,166 71,170C70,173 69,175 69,175C69,177 65,184 64,184C64,184 63,183 63,182C62,181 62,180 61,180C59,181 60,186 62,186C63,187 64,191 62,191C61,192 61,191 60,190C60,186 58,186 57,189C57,191 57,192 58,193C60,194 61,197 59,199C58,199 58,203 57,207C57,214 57,215 59,217C62,220 62,220 64,219C68,216 68,216 74,223L80,228L82,224C83,221 85,218 86,217C88,216 88,216 88,219C87,221 86,223 86,223C84,226 85,228 89,230C91,231 93,233 94,234C95,235 96,236 97,236C99,237 100,243 98,243C96,243 77,263 76,267C75,268 75,269 74,269C73,269 63,283 63,284C63,286 56,296 54,297C52,299 52,299 56,301C58,302 60,303 60,304C60,306 61,307 62,308C63,310 63,312 60,312C59,312 58,313 58,314C58,315 71,316 76,315C81,314 85,314 85,316C85,317 84,318 82,319C77,320 80,321 86,321C90,321 92,321 93,319C93,318 135,318 463,318L832,318L831,321C831,323 831,325 830,325C830,325 690,326 519,326C348,326 182,326 151,327C108,327 94,327 93,326ZM68,272C70,270 71,268 71,267C71,266 76,260 82,254C93,242 94,240 92,238C88,233 85,232 82,233C78,236 77,235 77,232C76,228 70,222 67,222C66,222 65,223 63,224C60,227 58,226 57,221C57,217 55,216 51,216C49,216 48,217 48,222C48,225 48,228 49,229C50,230 51,234 51,242C52,248 52,254 53,254C53,255 54,259 54,262C54,269 55,269 58,270C59,271 62,272 63,273C65,276 65,276 68,272ZM69,212C69,211 70,209 70,207C73,202 75,197 75,195C75,194 76,193 76,191C77,190 78,189 78,187C78,186 79,185 80,184C80,183 81,182 81,181C81,178 87,167 88,167C89,167 89,168 89,169C89,170 89,171 88,171C88,171 87,172 87,174C86,176 84,181 82,185C80,189 78,194 78,196C78,197 77,199 77,201C76,202 74,205 73,209C72,215 69,217 69,212ZM88,212C87,212 88,210 89,209C89,208 90,206 90,204C90,203 91,202 92,202C92,201 93,200 93,199C93,197 94,195 95,193C99,185 99,184 99,181C99,180 100,178 100,177C101,176 102,175 102,174C102,173 103,172 104,172C105,171 106,175 104,177C103,178 102,180 102,182C101,186 99,193 97,194C97,195 96,196 96,198C96,199 95,200 94,201C94,201 93,203 93,204C93,206 92,208 92,208C91,209 90,210 90,211C90,213 88,214 88,212ZM54,210C54,207 53,204 52,204C51,205 51,212 52,212C53,212 53,211 54,210ZM221,199C219,196 219,194 221,192C221,190 222,188 222,187C222,185 223,183 224,181C225,180 225,176 225,170C226,159 227,152 228,150C229,149 229,146 229,143C229,136 229,136 227,138C224,140 220,146 219,149C217,155 212,162 209,163C205,163 201,160 201,155C201,154 201,152 202,152C203,151 203,150 203,149C203,145 207,136 210,132C212,129 214,128 217,130C218,131 219,131 221,130C226,128 248,108 248,105C251,99 253,96 257,93C263,89 264,89 267,92C272,96 272,103 268,110C267,111 265,114 264,116C260,122 258,123 253,121C249,120 249,120 245,124C240,127 240,128 240,133C240,137 239,139 238,140C237,141 237,143 237,148C237,152 237,156 236,156C236,157 235,159 235,160C235,162 235,166 234,170C234,175 234,176 236,179C239,182 240,184 238,185C238,186 237,187 237,189C236,190 234,194 231,196C226,202 223,202 221,199ZM474,199C471,196 472,187 476,182C479,177 479,177 472,180C462,184 453,180 453,172C453,164 465,152 473,152C478,152 480,148 480,137C480,128 479,126 477,128C476,129 473,135 473,138C473,142 470,148 468,148C465,150 464,149 462,145C459,140 458,137 460,135C461,134 462,133 462,132C462,128 475,115 480,115C482,115 486,120 486,124C486,126 487,128 488,129C489,130 489,132 488,138C488,143 488,148 487,150C487,153 487,157 486,160C486,163 486,166 487,167C488,169 488,170 487,172C486,174 486,174 489,177C493,180 493,183 490,189C487,193 483,198 481,198C481,198 480,199 479,200C477,201 476,201 474,199ZM422,195C420,194 419,189 421,184C422,183 423,181 423,180C423,179 424,177 426,176C429,174 429,174 429,165L429,156L427,156C423,157 419,153 421,150C422,149 423,147 423,146C423,145 424,144 424,143C425,143 426,142 426,142C426,141 427,140 427,139C428,138 429,136 429,135C429,133 429,129 429,125C429,117 429,116 426,116C423,116 421,112 422,109C423,108 423,106 423,105C423,100 431,88 434,88C435,88 437,89 438,90C440,91 442,92 444,92C448,92 455,100 458,108C461,116 461,128 457,135C456,137 455,140 455,140C455,143 447,148 444,148C441,148 440,152 440,171C440,183 440,183 437,186C436,187 433,191 431,193C427,197 425,198 422,195ZM736,195C732,193 733,186 738,179C743,174 744,172 742,170C741,170 741,166 741,162C741,157 741,153 740,152C739,152 737,154 734,157C728,163 725,163 722,159C721,156 721,156 725,149C730,140 733,137 736,139C738,142 741,141 741,137C741,136 741,134 742,133C743,132 743,130 742,130C742,129 741,122 741,114C741,100 741,99 743,95C749,87 749,87 761,87C770,88 771,88 773,86C777,82 784,83 783,87C782,89 782,92 781,94C778,106 764,110 762,100C761,96 756,96 753,100C750,102 750,102 750,114C750,134 752,138 758,134C761,132 769,131 771,132C773,133 773,141 771,144C767,153 759,156 757,150C756,147 754,146 752,148C752,149 752,155 752,162L752,174L755,177C759,182 759,182 753,189C746,196 740,198 736,195ZM301,194C298,191 302,177 305,177C305,177 306,174 306,171C306,168 306,156 306,145C306,134 306,125 306,124C305,124 303,126 299,128C289,134 286,136 283,134C280,132 278,125 280,123C281,122 281,121 281,120C281,117 287,110 290,110C294,109 297,111 297,114C297,117 300,116 305,112C308,109 311,107 311,107C313,107 318,104 325,100C328,98 332,96 335,94C339,93 342,88 342,85C342,83 348,76 351,74C354,73 354,73 357,74C366,79 356,102 345,102C343,102 340,103 338,104C336,105 332,108 329,109C327,111 322,114 320,115L315,118L315,125C315,129 315,141 315,152L315,172L318,175L320,178L318,183C314,191 311,195 306,195C304,195 302,194 301,194ZM347,192C345,191 344,187 347,184C348,182 349,152 347,149C346,146 343,147 343,149C343,150 343,152 342,153C341,154 341,159 341,164C341,169 340,173 340,174C339,174 339,176 340,177C342,181 335,189 331,189C326,189 324,181 328,177C329,176 329,170 329,154L329,133L326,130C321,125 323,118 329,113C338,106 347,117 340,125C338,128 336,135 337,137C338,138 339,138 341,138C348,136 349,136 352,140C353,141 354,143 354,144C354,146 358,152 359,151C360,151 360,150 360,148C360,142 369,129 374,127C379,126 386,134 385,140C385,144 381,151 378,151C377,152 376,153 375,155C374,157 372,158 371,159C370,159 368,161 367,162C366,165 366,165 369,168C372,172 377,172 383,168C395,162 398,162 400,166C403,171 402,172 399,178C396,184 392,189 388,190C384,191 382,190 380,184C378,182 377,181 375,180C373,180 372,179 371,179C371,178 370,178 369,178C364,178 359,170 360,165C360,161 360,160 359,160C356,160 357,172 360,175C367,183 357,196 347,192ZM590,190C588,187 589,183 592,177C595,172 595,171 595,163C595,159 595,154 594,153C594,152 593,146 593,139C593,133 593,127 592,127C591,126 591,124 591,122C591,120 591,119 591,119C590,119 583,122 580,123C575,126 572,125 570,122C567,119 567,119 568,116C569,115 570,114 570,113C570,109 577,107 579,110C581,112 586,111 589,108C591,106 592,99 590,99C589,99 589,98 589,96C590,89 589,88 586,88C583,88 580,85 581,83C581,82 581,80 582,79C584,70 597,64 597,72C597,74 598,75 598,76C600,78 600,80 599,82C597,85 597,99 598,101C600,103 604,100 608,95C611,92 618,87 619,87C620,87 624,96 624,98C624,101 620,108 617,111C613,115 608,115 606,113C603,110 600,112 600,117C600,120 600,122 601,122C601,123 602,127 602,132C602,148 603,162 605,165C605,166 606,168 606,169C606,171 607,172 608,173C611,176 607,183 600,188C595,192 592,193 590,190ZM575,184C574,181 574,178 577,171C578,170 578,168 577,167C577,166 576,162 576,157C576,153 576,149 575,148C574,146 571,148 571,151C571,153 570,156 569,158C567,161 566,165 568,168C571,170 570,174 568,177C559,187 549,184 556,174C558,172 558,170 558,158C558,144 558,143 555,139C552,134 552,132 557,125C561,120 569,122 568,127C567,131 568,131 570,130C572,127 578,129 580,132C580,133 581,135 582,135C583,136 583,138 583,139C582,140 583,143 584,144C584,146 585,150 585,156C585,163 585,165 588,167C591,172 590,176 584,182C579,187 578,187 575,184ZM246,182C244,179 244,165 245,164C246,164 246,163 246,162C246,161 247,159 247,158C248,156 249,153 249,150C248,139 260,126 266,131C269,133 270,134 268,136C266,136 267,139 269,145C272,150 271,161 268,165C268,166 267,168 267,169C267,171 259,181 256,183C252,185 247,184 246,182ZM537,183C536,182 535,180 535,179C535,179 533,177 531,176C527,173 522,166 522,164C522,164 520,162 519,161C517,160 515,158 515,158C514,151 516,146 521,145C523,144 524,144 524,143C524,143 524,141 524,140C525,139 526,137 527,136C529,133 529,133 525,132C521,131 515,137 513,144C513,145 512,147 511,148C509,152 510,159 512,162C517,166 513,174 505,178C496,182 492,173 498,163C501,159 501,159 500,157C499,156 498,154 498,152C498,147 496,138 494,136C490,130 492,122 498,119C501,117 501,117 504,119C507,121 508,124 505,129C503,135 505,135 509,129C512,124 515,122 521,119C529,115 534,119 533,128C532,131 532,131 534,130C541,127 549,134 549,144C549,147 549,148 544,152C542,154 538,156 537,156C532,157 528,159 528,160C528,162 534,168 535,168C537,168 540,165 540,164C540,162 545,159 548,159C550,159 551,161 552,163L554,167L551,173C549,177 547,180 546,181C544,184 539,185 537,183ZM123,177C122,171 121,169 120,175C119,179 120,182 122,182C123,182 123,181 123,177ZM53,175C53,174 54,174 56,174C60,174 63,171 63,168C63,164 66,164 66,168C67,171 69,172 69,169C69,166 65,162 63,162C62,163 60,164 57,166C52,169 50,169 47,166C45,163 40,165 40,168C40,170 44,174 47,174C49,174 50,174 50,175C51,176 52,176 52,176C53,176 53,176 53,175ZM467,173C468,172 469,171 470,171C471,171 473,169 475,167C479,164 479,163 478,161C476,157 470,160 465,168C461,173 462,176 467,173ZM614,172C611,170 612,167 614,162C619,153 625,150 630,155C632,157 632,157 635,152C640,144 637,142 625,145C611,148 611,129 625,122C627,121 630,120 631,120C632,120 635,118 636,117C643,111 648,112 648,119C648,127 645,129 638,129C632,128 626,130 626,132C626,133 626,133 626,134C626,134 630,134 634,134C642,134 642,135 645,138C648,142 649,149 647,150C646,151 646,152 646,153C646,154 645,156 644,156C643,157 642,159 642,160C642,161 631,170 626,172C620,174 616,174 614,172ZM802,173C799,171 800,163 803,162C808,160 811,162 811,167C811,173 806,176 802,173ZM693,168L689,164L689,154C689,146 689,143 691,139C692,136 693,133 693,131C693,130 693,129 694,128C695,128 695,124 695,119C695,114 695,109 696,107C697,104 703,98 705,98C706,98 707,98 708,97C709,95 713,96 715,99C718,103 720,106 718,107C717,109 717,116 718,117C724,120 726,138 721,148C716,160 710,167 703,170C699,173 697,172 693,168ZM256,169C257,168 258,167 258,166C258,165 259,162 261,160C262,157 263,154 263,153C261,150 259,152 256,158C255,161 253,164 253,165C250,170 253,173 256,169ZM107,166C106,165 107,163 109,162C113,158 113,158 111,163C109,167 108,168 107,166ZM141,166C147,166 150,162 148,160C148,159 147,158 147,157C147,155 146,154 145,153C145,151 144,149 144,147C144,145 143,144 142,143C139,142 139,142 139,144C139,145 139,146 138,146C136,148 129,165 130,166C131,167 136,167 141,166ZM54,162L56,160L52,160C47,160 46,161 48,163C50,165 52,164 54,162ZM701,160C701,160 703,158 704,156C711,148 716,135 715,128C713,121 710,120 706,124C705,126 703,129 703,131C702,134 701,138 699,144C698,145 698,150 698,154C697,160 697,161 699,161C700,161 701,161 701,160ZM69,153C69,151 68,148 67,148C67,147 66,144 66,141L66,134L72,129C75,126 79,123 81,122C83,121 86,119 87,117L89,115L87,115C86,115 81,117 78,119C74,121 70,123 70,123C69,123 69,124 63,128C59,131 59,144 62,151C67,160 70,161 69,153ZM113,156C112,156 117,145 121,142C122,141 123,139 123,138C123,137 123,136 124,136C124,135 126,133 127,130C128,128 130,126 131,126C133,126 132,128 129,133C127,135 126,138 126,139C126,139 126,140 125,140C124,140 123,142 122,145C121,147 119,150 118,150C118,151 117,152 117,153C117,155 116,156 115,156C113,157 113,157 113,156ZM93,151C93,149 101,138 101,141C101,141 101,142 100,142C99,143 99,144 99,145C99,148 96,154 94,154C94,154 93,153 93,151ZM374,146C376,142 376,138 373,138C370,138 367,146 370,148C371,149 371,149 374,146ZM539,143C540,140 540,138 538,138C534,138 529,145 532,147C533,148 538,145 539,143ZM446,134C450,129 450,128 450,118C450,109 450,108 447,105C444,101 442,101 441,104C441,106 440,107 439,107C437,109 438,119 440,122C441,124 441,126 441,130C440,135 441,139 442,139C442,139 444,137 446,134ZM802,121C799,119 799,113 801,111C802,111 804,110 806,110C810,110 812,112 811,116C811,120 809,122 806,122C804,122 803,121 802,121ZM129,98C131,95 131,95 129,91C127,88 126,88 126,92C126,94 126,96 125,97C122,99 123,101 125,101C126,101 128,100 129,98ZM143,72C141,71 139,70 139,69C139,67 142,68 145,71C149,74 148,75 143,72ZM143,63C141,63 140,62 140,61C140,59 144,60 146,62C149,65 148,65 143,63ZM144,56C143,55 142,54 141,54C139,54 138,51 140,51C142,51 148,55 148,56C148,57 147,57 144,56Z" fill="currentColor" fill-rule="evenodd"/></svg>