<svg xmlns="http://www.w3.org/2000/svg" viewBox="0 0 429 405"><path d="M137,386C137,385 133,384 128,384C123,384 120,383 119,382C118,382 116,381 114,381C113,381 111,380 110,380C109,379 108,378 107,378C106,378 105,377 104,376C103,376 102,375 101,375C100,375 99,374 98,374C97,373 96,372 96,372C95,372 93,371 91,369C89,367 87,366 86,366C86,366 84,365 82,363C80,362 78,360 77,360C76,359 60,344 60,343C60,342 59,340 57,338C55,336 54,334 54,333C54,333 53,332 52,331C52,330 51,329 51,327C51,325 50,324 50,323C49,322 48,321 48,319C48,317 47,316 46,315C46,314 45,312 45,310C45,309 45,307 44,306C43,306 43,305 43,303C44,302 44,300 43,300C43,300 42,294 42,288C41,281 41,276 40,276C39,276 39,271 40,269C41,268 41,268 40,267C37,264 39,260 47,251C55,243 59,241 62,244C64,247 70,246 73,243C75,241 77,240 78,240C79,240 80,240 80,239C80,238 88,234 90,234C91,234 93,232 96,230C98,227 101,225 102,225C104,225 104,224 104,224C104,223 99,222 90,222C75,221 72,220 72,216C72,215 71,214 70,213C70,213 69,212 69,211C69,209 70,208 70,207C71,206 72,204 72,202C72,200 73,198 74,197C77,194 76,193 73,192C72,192 70,191 70,191C69,190 68,190 68,190C67,190 63,197 63,199C63,200 62,201 61,201C61,202 60,203 60,204C60,207 60,207 56,207L51,207L51,202C51,199 50,196 50,194C49,193 48,190 48,187C48,182 48,182 43,177C41,175 39,172 39,172C39,170 42,164 44,162C45,161 45,160 44,159C40,156 43,148 49,141C55,135 72,137 72,144C72,147 74,148 75,146C76,144 78,144 88,144C100,144 100,144 104,141C107,139 110,138 112,138C113,138 115,137 116,137C117,136 120,135 126,135L134,134L135,127C135,121 136,118 137,117C138,115 138,115 137,114C134,112 134,91 136,89C137,88 138,87 138,86C138,85 140,82 143,80C148,75 149,75 158,77C162,77 168,85 168,88C168,90 168,92 169,93C170,93 174,89 174,86C174,85 175,84 175,84C176,84 178,83 180,81C182,79 184,78 185,78C186,78 187,77 188,76C190,74 200,74 202,77C203,77 204,78 204,78C205,78 207,79 208,80C211,83 211,95 208,96C208,97 207,98 207,99C207,100 206,102 204,103C203,104 201,107 200,110C198,112 196,116 195,118C192,122 193,125 197,122C199,120 201,120 203,122C205,122 206,123 207,123C211,123 219,129 219,132C219,133 220,134 220,135C222,135 222,137 222,144C222,152 222,153 219,158C217,160 216,163 216,163C216,164 215,165 215,165C214,165 211,166 209,168C204,171 203,171 194,172C184,172 183,172 180,176C178,177 177,179 177,180C177,181 176,183 174,184C171,188 171,190 175,189C180,189 189,197 189,203C189,205 190,206 190,207C192,207 192,209 192,213C192,219 193,220 198,217C201,214 202,213 200,211C199,210 198,208 198,206C198,205 197,203 196,202C194,200 194,192 196,191C197,191 198,190 198,188C198,187 199,184 201,182C203,180 204,178 204,178C204,177 205,177 207,177C208,177 209,176 210,176C210,175 211,174 212,174C213,174 214,175 215,176C216,176 217,177 218,177C218,177 219,178 219,179C219,181 220,182 220,183C223,185 223,193 221,195C218,197 220,198 229,198L238,198L241,201C244,204 244,205 244,208C243,211 243,212 244,213C246,214 245,218 240,223C239,225 238,227 237,231C237,233 236,236 236,236C234,238 235,240 239,240C242,241 243,240 246,237C249,236 251,234 251,234C252,234 254,233 256,231C258,229 260,228 261,228C262,228 263,227 264,226C265,226 266,225 267,225C268,225 269,224 271,224C272,223 274,222 275,222C277,222 278,221 279,220C280,220 282,219 284,219C287,219 289,218 291,218C293,215 326,215 328,218C329,218 330,219 331,219C332,219 333,220 333,221C334,221 335,222 336,222C339,222 342,226 342,230C342,233 342,234 340,234C340,234 337,235 335,237C333,239 330,240 328,240C327,240 325,241 324,242C323,242 321,243 318,243C315,243 313,244 312,244C311,246 309,246 305,246C299,246 298,246 295,249C294,251 292,252 291,252C291,252 290,253 289,254C288,254 287,255 286,255C285,255 281,258 278,261C275,264 271,267 270,267C267,269 267,270 267,276C267,280 267,282 266,283C264,283 264,285 264,290C264,295 264,297 262,297C261,298 261,299 261,303C261,307 261,309 260,309C259,310 258,311 258,313C258,314 257,316 256,317C256,318 255,319 255,321C255,322 254,325 252,327C250,329 249,331 249,333C249,334 247,336 244,339C242,341 240,344 240,345C240,347 225,363 220,366C219,367 215,369 213,371C210,373 208,375 207,375C206,375 205,376 204,376C204,377 203,378 201,378C199,378 197,379 196,379C195,380 192,381 188,381C184,382 180,382 180,383C180,383 176,384 172,384C167,384 163,385 163,386C161,388 139,388 137,386ZM143,377C143,375 146,375 148,377C150,378 150,378 152,377C154,376 155,376 157,377C158,378 160,378 162,377C163,377 166,377 167,377C169,377 170,377 170,376C170,376 173,375 178,375C182,374 186,374 186,373C186,372 188,372 189,372C191,372 193,371 194,370C195,370 196,369 196,369C197,369 198,368 199,368C200,367 201,366 203,366C205,366 207,365 208,363C209,362 211,360 212,360C217,357 222,353 222,350C222,350 225,346 229,342C233,338 236,334 237,333C237,332 238,330 239,329C240,328 242,325 243,324C243,322 244,320 245,319C248,314 249,311 249,309C249,307 250,305 250,304C251,304 252,302 252,300C252,298 253,297 253,296C254,296 255,294 256,291C256,288 257,286 257,285C259,285 258,282 256,282C256,282 255,282 255,283C255,285 251,289 249,288C246,286 243,288 243,293C243,298 238,302 237,298C236,298 235,297 234,297C233,297 231,295 228,293C224,288 223,288 220,291C218,294 216,295 212,297C211,298 210,298 210,299C210,301 200,300 199,298C198,298 196,297 193,297C190,297 187,296 185,296C182,293 179,294 175,298C172,301 172,301 172,311C172,321 172,321 169,321C167,321 161,325 161,326C161,327 163,330 166,333C174,341 174,347 166,355C165,356 164,357 163,357C161,357 162,354 164,354C164,353 165,352 165,351C165,350 166,349 166,348C170,345 168,341 160,333C156,329 153,326 153,325C153,324 157,321 159,321C159,321 160,320 161,320C161,319 162,318 162,318C163,318 164,317 166,316C168,313 169,302 167,300C166,300 164,298 163,297C161,294 161,294 153,294C146,294 144,294 143,293C141,290 140,291 135,296C130,300 124,302 120,298C118,297 118,297 117,298C114,302 109,300 105,296C101,292 99,291 98,293C96,296 87,295 87,292C87,290 82,285 80,285C80,285 79,284 78,284C77,283 76,282 75,282C74,282 73,283 72,284C72,284 71,285 70,285C69,285 68,286 67,286C64,289 61,289 57,284C55,281 52,279 51,279C50,279 51,297 53,299C53,300 54,303 54,305C54,308 55,310 56,311C56,312 57,313 57,314C57,315 58,317 59,318C60,319 60,321 60,323C60,325 61,326 62,327C62,327 63,328 63,329C63,331 64,333 66,334C68,336 69,338 69,339C69,340 80,351 81,351C82,351 85,353 88,356C91,358 94,360 94,360C95,360 96,361 97,362C98,362 99,363 100,363C101,363 102,364 102,364C103,365 104,366 106,366C107,366 109,367 110,368C111,368 112,369 113,369C113,369 114,370 114,370C115,371 116,372 119,372C121,372 123,373 124,373C127,377 138,376 138,372C138,371 139,371 140,371C142,372 142,374 140,375C138,375 137,376 139,377C140,378 143,378 143,377ZM182,285L188,284L189,280C189,275 189,275 185,271C183,269 180,267 179,267C179,267 178,266 177,266C176,262 174,264 175,268C175,274 173,276 170,272C167,270 167,241 170,240C171,239 171,238 171,234C171,230 171,228 172,228C173,227 174,226 174,225C174,223 175,222 176,222C178,222 180,225 180,228C180,229 181,230 182,231C182,231 183,232 183,233C183,234 185,236 187,239C188,241 190,244 190,244C190,249 203,241 206,235C207,232 209,229 210,228C213,223 213,222 212,219C210,215 208,215 203,219C201,221 199,222 198,222C198,222 196,224 194,225C191,230 189,230 189,227C189,222 188,220 187,219C186,219 186,217 186,214C186,210 185,208 184,207C184,206 183,204 183,203C183,198 180,195 173,195C169,195 168,195 168,193C167,191 168,183 170,182C170,182 171,181 171,180C171,179 173,177 176,174C178,171 180,168 180,168C180,168 185,168 191,168C201,168 202,168 205,166C210,163 216,155 216,152C216,151 217,149 217,148C219,146 219,145 218,144C217,142 216,140 216,137C216,133 215,132 211,130C209,129 206,127 206,127C204,125 194,126 191,128C188,131 188,136 192,139C195,142 196,148 193,151C190,155 187,153 189,148C190,145 190,145 188,143C186,140 184,141 181,146C180,148 179,150 177,152C176,153 175,155 174,156C174,157 173,159 171,161C170,162 168,165 167,167C165,171 144,192 141,193C140,193 139,194 138,196C138,197 136,198 135,198C135,198 132,199 130,201C128,203 126,204 126,204C125,204 124,205 123,206C122,206 121,207 120,207C119,207 118,208 117,208C116,209 115,210 114,210C113,210 112,211 111,212C111,213 108,213 98,213C82,213 78,211 78,205C78,203 78,201 79,200C80,200 80,199 80,198C80,197 79,198 77,200C74,204 74,213 77,217C79,219 80,219 90,219C99,219 102,219 104,218C105,217 107,216 108,216C109,216 110,215 111,214C111,214 112,213 114,213C115,213 119,212 122,210C125,208 128,207 128,207C129,207 132,205 135,203C138,200 141,198 142,198C142,198 144,197 146,195C147,193 149,192 150,192C151,192 155,189 159,184C167,176 168,176 168,180C168,182 168,183 167,183C167,183 164,186 161,189C158,192 154,195 153,195C152,196 148,199 145,202C142,205 139,207 138,207C137,207 136,208 135,208C134,209 133,210 132,210C132,210 131,211 130,212C129,212 128,213 126,213C125,213 124,214 123,214C122,215 121,216 120,216C119,216 115,219 111,224C97,238 96,239 96,244C96,249 101,255 102,250C103,250 103,249 104,249C106,249 111,244 110,242C109,239 120,225 124,225C125,225 126,224 128,224C131,221 138,221 141,223C144,225 153,226 155,224C157,221 159,222 159,224C159,225 160,227 160,227C161,228 162,230 162,231C162,232 161,233 160,234C159,235 159,239 159,255L159,274L156,277C154,279 151,281 149,282C141,283 143,285 155,285C164,285 164,285 167,289L169,292L173,288C176,285 177,285 182,285ZM132,286C134,284 137,282 138,282C139,282 140,281 141,280C141,280 142,279 144,279C148,279 153,274 153,271C153,269 154,267 155,266C156,264 156,263 154,262C153,261 153,260 154,258C154,255 154,255 152,255C151,255 150,256 150,256C149,257 148,258 147,258C146,258 145,259 144,260C143,261 132,262 131,260C130,260 128,259 126,258C121,258 119,256 116,252C115,248 110,248 108,252C108,253 106,255 105,257C100,262 101,267 107,274C112,279 113,279 117,279C121,279 126,282 126,284C126,285 122,285 122,284C121,283 119,283 117,283C115,283 112,282 110,281C108,280 105,279 105,279C102,279 99,275 99,273C99,271 99,270 98,270C96,270 93,274 93,276C93,277 92,278 92,279C89,279 90,281 92,283C95,285 96,285 98,284C100,281 103,282 108,286C112,290 112,290 114,289C117,288 123,288 124,290C126,292 127,291 132,286ZM212,285C218,279 223,277 224,280C226,282 228,281 228,278C228,277 228,276 229,276C229,276 231,274 232,272C235,265 266,237 271,237C271,237 272,236 273,236C274,235 275,234 276,234C277,234 278,233 279,232C280,232 282,231 284,231C285,231 287,230 288,230C289,229 291,228 294,228C296,228 300,227 301,226C304,224 321,225 321,227C322,228 336,229 336,227C336,226 329,222 326,222C325,222 324,222 324,221C323,219 297,219 296,221C295,221 292,222 289,222C286,222 284,223 283,224C282,224 280,225 278,225C275,225 274,226 273,226C273,227 272,228 271,228C269,228 268,229 267,229C267,230 265,231 264,231C263,232 259,235 255,238C251,240 247,243 246,243C245,244 242,246 239,248C236,251 232,254 229,256C223,261 198,287 198,289C198,290 199,290 203,291C205,291 207,289 212,285ZM240,280C240,279 242,279 243,279C247,279 252,275 254,269C255,268 256,267 258,267C260,267 261,266 261,264C261,263 262,261 262,261C264,259 263,253 261,252C259,250 259,250 250,259C244,264 240,269 240,270C240,271 239,273 237,274C234,277 233,283 235,285C235,286 240,281 240,280ZM195,282C195,279 218,256 223,254C227,251 230,248 229,247C229,246 228,247 226,248C224,249 223,249 222,248C221,247 219,247 217,247C216,246 214,245 212,243C209,240 207,239 207,241C207,242 203,246 202,246C202,246 201,247 200,248C197,252 188,249 184,243C183,241 182,240 181,240C181,240 180,239 180,238C180,236 176,232 175,233C174,234 177,240 179,240C179,240 180,241 180,242C180,244 178,243 176,241C175,240 175,240 174,241C172,244 173,246 176,246C178,247 178,249 175,249C171,249 172,254 178,260C181,262 183,265 183,266C184,267 184,267 186,265C188,263 188,263 189,264C189,266 189,267 188,267C185,268 189,273 193,273C195,273 196,276 194,276C193,277 192,278 192,280C192,283 192,284 194,284C194,284 195,283 195,282ZM66,278C67,277 68,276 69,276C71,276 72,275 72,273C72,271 74,270 76,272C76,273 77,273 79,273C81,273 82,274 83,275C84,276 85,277 86,277C86,277 87,276 87,275C87,274 86,273 86,273C85,273 84,272 84,272C84,269 86,269 87,271C88,272 88,272 90,271C93,269 93,268 90,267C89,267 88,266 87,265C87,265 86,264 85,264C82,264 83,262 86,259C89,257 90,257 90,250C90,240 89,240 85,243C84,245 81,246 80,246C79,246 78,247 77,248C76,248 75,249 75,249C74,249 72,250 71,252C68,254 66,255 66,253C66,252 65,252 63,252C62,252 60,251 59,250C59,249 58,249 57,249C57,250 60,254 63,256C66,257 67,260 65,260C64,260 62,259 61,258C56,253 50,255 52,261C52,263 52,264 50,264L48,265L50,267C51,268 52,270 52,270C52,271 53,271 54,272C56,272 57,273 57,274C57,275 58,276 58,276C59,276 60,277 60,278C61,279 64,279 66,278ZM92,262C92,260 88,260 87,262C87,264 87,264 90,264C91,264 92,263 92,262ZM193,263C192,263 192,262 192,261C192,260 190,258 189,257C185,254 184,252 186,252C188,252 192,255 192,257C192,258 193,258 194,258C196,258 197,260 195,262C195,264 194,264 193,263ZM273,259C275,257 276,256 276,255C276,254 277,253 277,252C279,250 280,237 279,237C278,237 277,238 276,238C275,239 274,240 273,240C272,240 271,241 270,242C269,242 268,243 267,243C264,243 263,246 265,249C266,251 267,254 267,256C267,262 269,263 273,259ZM146,251C151,247 151,246 146,246C138,247 136,246 131,240C124,234 125,234 121,238C117,243 117,244 118,245C119,246 120,248 120,249C122,254 125,255 134,255C142,255 142,255 146,251ZM291,247C294,244 297,241 297,241C297,240 298,238 300,236C302,234 303,232 302,232C301,231 293,232 292,233C291,233 289,234 288,234C286,234 285,235 285,241C285,245 284,248 283,249C282,251 282,252 284,252C285,252 288,250 291,247ZM145,241C146,240 147,240 148,240C150,240 156,233 156,231C156,229 153,228 152,230C150,232 145,231 141,228C135,223 133,224 132,231C132,237 132,238 137,241C140,243 143,243 145,241ZM228,236C232,231 233,229 231,229C230,229 229,229 228,230C228,231 227,231 225,231C220,231 216,235 216,239C216,240 217,242 217,242C219,243 225,239 228,236ZM306,242C307,241 309,240 310,240C313,240 320,234 318,232C318,231 315,231 312,231C307,231 306,232 306,235C306,237 305,239 303,240C302,241 301,242 302,242C302,243 303,243 306,242ZM329,235C333,233 333,231 329,231C326,231 325,232 323,233C320,237 323,238 329,235ZM233,223C238,220 241,217 239,216C238,215 237,215 235,217C232,218 229,219 225,219C217,219 216,220 219,223C221,226 227,226 233,223ZM226,214C227,213 228,213 229,213C232,213 239,209 239,207C240,206 239,205 237,203C232,199 220,201 214,207C212,210 211,212 213,212C214,213 216,213 218,214C221,215 226,215 226,214ZM207,207C207,206 208,205 208,204C209,203 210,202 210,201C210,200 211,198 213,196C217,193 217,188 214,183C211,179 207,179 207,184C207,185 206,186 206,186C205,187 204,188 204,191C204,193 203,195 202,195C201,197 201,197 202,200C203,201 204,204 204,206C204,208 204,209 206,209C206,209 207,208 207,207ZM90,206C90,206 89,205 88,204C88,203 87,202 87,200C87,197 85,198 84,201C84,203 84,205 84,206C85,207 90,208 90,206ZM115,205C117,202 118,196 115,195C113,195 111,197 111,201C111,202 110,203 110,204C109,205 108,206 108,206C108,208 112,207 115,205ZM57,200C58,199 59,196 60,194L63,190L61,188C59,187 58,186 57,186C56,186 55,185 54,185C53,184 52,183 52,184C50,184 51,188 53,189C54,189 54,191 54,196C54,200 54,203 55,203C55,205 57,203 57,200ZM99,198C99,197 100,195 101,194C103,192 102,189 99,189C97,189 96,190 96,195C96,200 96,201 97,201C98,201 99,200 99,198ZM131,194C135,190 136,188 134,186C133,186 129,190 129,192C129,193 128,194 128,194C126,195 125,198 127,198C128,198 130,196 131,194ZM298,192C294,192 291,189 290,185C290,183 289,181 289,180C288,179 288,178 289,176C290,175 291,172 291,171C291,169 292,168 292,167C293,166 294,165 294,165C294,163 299,157 305,154C312,148 318,149 324,154L328,158L327,167L327,176L319,184C312,191 310,192 308,192C306,192 304,192 302,192C301,193 299,193 298,192ZM242,190C240,189 240,185 240,163C240,136 240,135 246,135L249,135L249,150C249,166 250,170 252,165C252,163 253,162 254,162C255,161 255,160 255,158C255,157 256,155 256,154C257,153 258,152 258,150C258,148 259,147 260,146C260,145 261,143 261,142C261,138 264,135 268,135C270,135 270,135 270,141C270,146 270,148 272,149C272,150 273,152 273,155C273,158 274,161 274,162C275,162 275,164 275,165C276,169 278,168 279,164C279,163 280,161 281,160C281,159 282,158 282,157C282,156 283,155 284,154C284,153 285,152 285,150C285,148 286,147 286,147C287,146 288,145 288,144C288,141 290,136 293,134C295,132 295,132 297,134C300,136 301,142 298,144C298,145 297,146 297,148C297,149 296,150 296,150C295,151 294,152 294,153C294,155 293,156 292,157C292,158 291,159 291,160C291,161 290,164 288,167C286,170 285,173 285,175C285,176 284,177 284,177C283,178 282,179 282,180C282,181 281,183 280,185C279,187 278,189 278,190C277,192 272,192 269,190C267,188 267,187 267,179C267,174 266,169 265,168C265,167 264,165 264,164C263,161 261,163 261,167C261,169 260,171 260,171C259,172 258,173 258,174C258,176 257,177 256,178C256,179 255,180 255,182C255,183 254,184 254,185C253,186 252,187 252,188C252,192 245,194 242,190ZM332,190C330,188 329,183 332,183C333,182 333,180 333,171C333,162 333,159 334,158C335,157 336,156 336,155C336,149 340,149 344,153C347,156 347,156 349,155C356,151 359,151 362,155C365,161 358,168 354,163C353,162 353,162 349,165C348,166 345,168 344,168C342,169 342,170 342,175C342,179 342,182 341,183C340,183 340,184 341,186C344,190 335,194 332,190ZM363,191C362,189 363,173 364,171C365,171 365,166 366,161C369,135 369,133 376,135C378,135 379,140 377,142C376,143 374,160 375,161C375,162 378,159 382,156C386,153 389,150 390,149C392,149 396,152 396,154C396,155 394,157 383,166C377,171 377,171 384,178C389,184 390,185 390,188C390,192 390,192 387,192C384,192 383,191 378,186C373,178 373,178 371,181C370,183 370,184 371,186C373,189 366,194 363,191ZM100,185C102,184 106,184 108,183C109,183 112,182 114,181C115,181 117,180 118,180C119,179 120,179 121,178C122,178 123,177 124,177C125,176 126,176 127,175C128,175 129,174 130,174C133,172 148,162 149,161C149,160 151,159 152,159C154,158 157,156 159,154C161,152 164,150 165,150C166,150 168,149 169,147C171,145 173,144 173,144C174,144 174,143 174,142C174,142 173,141 172,141C170,141 169,140 168,140C167,139 165,138 163,138C159,138 159,138 159,135C159,132 161,131 162,133C164,137 174,133 174,130C174,129 175,127 177,124C179,122 180,118 180,117C180,115 181,114 182,113C183,112 183,110 183,106C183,100 182,98 177,96C175,94 169,99 168,102C168,104 167,105 166,105C166,106 165,107 165,108C165,110 164,111 164,111C163,112 162,113 162,114C162,115 161,116 160,117C159,118 159,120 159,125C159,129 159,132 158,132C157,132 155,134 153,136C151,139 148,141 147,141C144,141 144,143 145,145C147,147 148,153 146,153C145,153 143,151 142,149C138,141 133,138 126,138C121,138 117,141 122,141C124,141 125,142 127,142C128,143 129,144 130,144C130,144 132,145 133,146C136,149 136,162 134,163C133,163 132,164 132,165C132,168 130,169 122,173C105,181 79,183 88,176C89,175 90,174 90,172C90,169 101,156 103,156C104,156 105,155 106,154C111,150 123,153 123,158C123,162 119,167 117,168C114,169 113,171 116,171C121,171 131,159 131,154C131,148 129,147 117,147C111,147 106,148 106,148C105,149 103,150 101,151C96,154 87,163 87,166C87,167 86,168 86,168C85,169 84,170 84,171C84,172 83,173 82,174C80,175 78,172 78,169C78,167 77,165 77,163C76,162 75,161 75,160C75,158 74,156 72,154C70,152 69,150 69,149C69,146 68,144 66,144C65,144 64,143 63,142C58,136 44,148 47,156C49,160 50,160 52,156C54,153 54,153 58,153C61,153 63,154 64,154C65,155 66,156 67,156C68,156 69,158 71,160C71,162 73,165 74,165C74,166 75,168 75,172L75,177L71,177C68,177 66,176 65,176C64,175 63,174 62,174C61,174 60,173 59,172C58,172 57,171 57,171C56,171 54,170 52,168C48,164 46,164 45,168C45,173 46,176 48,177C50,177 51,178 52,179C53,179 54,180 55,180C56,180 58,181 59,182C61,184 63,185 64,185C67,186 94,186 100,185ZM402,183C402,179 404,177 406,177C409,177 409,178 408,182C408,186 407,186 404,186C401,186 401,186 402,183ZM310,180C316,175 318,171 318,165C318,160 317,159 315,159C312,159 304,164 303,167C303,168 302,169 301,170C300,172 299,181 300,182C301,184 307,183 310,180ZM150,178C154,175 155,175 153,173C151,170 148,171 147,174C147,175 146,176 145,177C144,179 144,181 146,181C146,181 148,180 150,178ZM403,173C402,173 403,172 404,171C404,170 405,168 405,165C405,162 406,159 406,158C407,157 408,152 408,145C408,132 408,132 411,132C415,130 420,134 416,136C414,136 414,138 414,142C414,146 414,149 413,150C413,150 412,155 411,161C411,167 410,173 409,173C409,174 403,174 403,173ZM90,154C91,153 93,151 94,151C97,148 95,147 88,147C83,147 81,147 79,149L76,151L79,157L82,163L85,160C86,158 88,156 90,154ZM151,133C156,128 156,127 156,123C156,120 157,116 158,113C159,109 160,106 159,104C159,101 155,96 152,96C151,96 145,103 145,106C144,107 143,108 142,108C142,109 141,110 141,113C141,116 140,118 139,119C137,123 138,131 140,135C143,139 145,139 151,133ZM178,136C178,135 183,134 184,136C185,138 186,136 186,131C186,129 187,126 188,125C188,123 189,121 189,120C189,118 190,117 190,117C191,116 192,115 192,114C192,112 193,111 194,111C194,110 195,109 195,108C195,107 196,105 198,103C201,100 204,95 204,92C204,90 205,88 205,87C207,84 204,81 200,81C198,81 196,80 195,80C194,79 192,79 187,82C186,83 185,83 184,84C177,86 177,88 182,93L186,98L186,107C186,115 186,117 184,117C184,118 183,119 183,120C183,123 179,130 176,132C175,133 174,134 174,135C174,138 177,139 178,136ZM165,131C165,130 165,127 165,122L166,114L170,114L174,114L174,119C174,124 174,125 170,128C167,132 165,133 165,131ZM145,126C143,125 144,118 146,117C146,116 147,115 147,113C147,111 148,111 150,111C153,111 153,111 153,116C153,119 152,122 152,124C150,126 146,127 145,126ZM371,115C369,113 369,111 370,109C371,109 371,105 372,100C372,96 373,92 373,91C374,90 374,87 375,84C375,78 375,78 378,78C381,78 381,78 380,81C380,84 383,85 385,82C386,82 387,81 388,81C389,81 390,80 391,80C394,76 399,80 399,86C399,89 398,90 396,90C394,90 392,90 392,89C391,86 390,87 384,91L378,94L378,101C378,104 378,107 377,108C376,108 376,109 376,111C377,112 377,114 375,115C373,117 373,117 371,115ZM287,111L282,108L282,100C282,94 282,92 284,91C284,90 285,89 285,88C285,85 294,75 297,75C298,75 300,74 301,73C303,71 311,73 315,76C318,78 318,78 318,87C318,94 318,96 316,96C316,97 315,98 315,99C315,103 304,111 299,111C298,111 296,112 295,112C293,115 292,114 287,111ZM329,112C327,110 326,96 328,96C329,96 329,92 330,87C330,79 332,75 335,75C338,75 340,80 338,82C337,84 336,89 336,94C335,99 335,104 335,106C334,108 340,109 341,107C342,106 343,105 343,105C346,105 350,101 351,97C351,95 352,91 353,88C353,85 354,82 354,81C354,76 354,75 356,75C358,75 361,79 359,81C359,82 358,88 357,95C356,110 355,114 351,114C350,114 349,113 348,112C348,112 347,111 346,111C346,111 345,112 345,112C344,115 331,115 329,112ZM254,109C252,107 251,103 253,101C254,101 254,97 255,93C255,89 256,85 256,84C257,83 256,82 255,80C253,78 252,76 252,76C252,74 242,60 241,60C239,60 240,55 242,53C243,52 244,51 245,51C246,51 251,57 253,61C255,64 261,72 263,72C263,72 267,69 271,64C274,62 276,60 277,60C277,60 279,58 280,56C284,52 287,52 289,55C290,57 289,58 279,69C271,76 267,81 267,82C267,83 267,84 266,84C265,84 264,92 264,101C264,110 258,114 254,109ZM141,106C141,104 143,101 146,98C152,91 156,91 161,96C164,101 165,100 165,94C165,87 160,81 153,81C150,81 147,81 146,82C144,83 141,88 141,91C141,92 140,93 140,94C138,95 137,106 139,107C140,109 141,108 141,106ZM302,102C307,97 310,93 311,91C314,83 309,77 303,80C294,85 294,85 294,87C294,89 293,90 292,90C292,91 291,92 291,93C291,94 290,96 289,98C288,100 288,100 290,102C294,106 298,106 302,102ZM24,90C17,84 16,77 20,74C23,72 27,71 27,74C27,78 28,80 30,82C32,84 35,85 39,82C41,82 43,81 45,81C46,81 47,80 48,80C48,79 49,78 50,78C53,78 57,75 60,70C64,65 64,61 61,60C57,59 48,60 46,62C44,63 31,64 27,63C25,63 24,61 23,59C21,55 21,54 22,52C23,51 24,50 24,48C24,46 30,36 32,36C32,36 35,35 37,33C39,31 42,30 43,30C43,30 45,29 46,29C51,26 60,27 67,32C69,34 70,37 67,40C65,43 63,43 59,39C56,35 48,35 44,39C42,41 40,42 40,42C38,42 33,46 33,48C33,49 32,50 32,51C29,53 30,55 32,56C33,57 34,57 35,55C36,55 38,54 39,54C40,54 42,53 44,53C46,51 58,50 65,51C71,51 74,61 71,70C70,72 69,74 69,75C69,77 64,82 60,85C54,88 49,90 48,90C48,90 47,91 46,91C45,93 43,93 36,93C28,93 27,92 24,90ZM90,77C89,76 91,55 92,54C92,53 93,49 93,45C95,29 97,21 100,21C102,21 102,24 100,39C98,48 99,49 103,45C105,43 107,42 108,42C109,42 112,41 113,40C115,39 116,39 118,40C120,41 121,60 118,63C118,65 117,68 117,70C117,78 117,78 114,78C110,78 110,76 112,67C113,63 114,58 114,56C114,53 114,51 115,50C117,48 113,45 111,47C110,47 109,48 108,48C107,48 104,51 101,54L96,59L96,67C96,72 96,76 95,77C93,78 90,78 90,77ZM138,63C135,60 135,59 135,53C135,49 135,47 136,46C137,45 138,44 138,43C138,37 151,27 159,27C165,27 166,28 169,33C172,39 171,44 166,53C164,57 158,63 156,63C155,63 154,64 153,64C150,68 142,66 138,63ZM157,54C163,48 164,47 164,44C164,42 164,40 164,39C165,36 161,33 157,33C156,33 154,33 154,34C154,35 153,35 151,36C150,37 148,38 148,39C147,41 146,42 146,42C144,42 141,49 141,53C141,62 148,63 157,54ZM186,52C185,51 185,44 185,36C185,28 185,22 184,21C183,19 186,15 189,15L192,15L192,23C191,27 191,32 191,33C190,36 190,37 193,35C194,35 195,34 195,33C195,32 197,29 199,24C200,23 200,22 201,21C202,17 205,14 206,15C207,15 207,18 207,20C208,23 208,26 209,26C209,27 210,29 210,30C209,36 210,39 212,39C212,39 213,38 213,37C213,35 214,33 216,31C218,29 219,27 219,27C219,26 220,25 220,24C221,23 222,22 222,21C222,16 228,13 229,17C229,20 223,34 221,36C220,37 219,39 214,48C208,58 204,55 204,41C204,31 202,30 199,38C198,41 197,43 196,44C195,44 195,45 195,46C195,47 194,48 194,48C193,49 192,50 192,51C192,55 188,55 186,52Z" fill="currentColor" fill-rule="evenodd"/></svg>